<svg width="26" height="70" viewBox="0 0 26 70" fill="none" xmlns="http://www.w3.org/2000/svg">
<g id="Group 86">
<path id="Vector_2" d="M25.4905 51.8609C24.5903 52.2677 23.6224 52.5388 22.6013 52.6669C23.6395 52.0385 24.4381 51.0361 24.8129 49.8518C23.8415 50.4326 22.7655 50.859 21.6205 51.0838C20.7062 50.0954 19.4021 49.4823 17.9572 49.4823C15.1817 49.4823 12.9324 51.7564 12.9324 54.5601C12.9324 54.9568 12.9778 55.3434 13.0636 55.7186C8.88831 55.5048 5.18517 53.4808 2.70769 50.409C2.2724 51.1595 2.02753 52.0385 2.02753 52.9661C2.02753 54.7289 2.91268 56.2806 4.26228 57.195C3.43845 57.1692 2.66309 56.9357 1.98422 56.5609C1.98422 56.5762 1.98422 56.599 1.98422 56.6204C1.98422 59.0839 3.71678 61.135 6.01328 61.602C5.59344 61.7192 5.15 61.7844 4.69285 61.7844C4.36821 61.7844 4.05214 61.7468 3.74594 61.6908C4.38536 63.7038 6.24057 65.1754 8.43844 65.2187C6.71874 66.5784 4.55304 67.3927 2.19778 67.3927C1.7908 67.3927 1.39326 67.3691 1 67.3205C3.22446 68.7572 5.86661 69.5995 8.70261 69.5995C17.944 69.5995 22.9993 61.8605 22.9993 55.147C22.9993 54.9271 22.9924 54.708 22.9821 54.4915C23.9689 53.7813 24.8189 52.8847 25.4905 51.8609Z" fill="#C1DBF0"/>
</g>
</svg>
